<?xml version="1.0" encoding="utf-8"?>
<!-- Generator: Adobe Illustrator 18.1.1, SVG Export Plug-In . SVG Version: 6.00 Build 0)  -->
<!DOCTYPE svg PUBLIC "-//W3C//DTD SVG 1.1//EN" "http://www.w3.org/Graphics/SVG/1.1/DTD/svg11.dtd">
<svg version="1.1" id="Layer_1" xmlns="http://www.w3.org/2000/svg" xmlns:xlink="http://www.w3.org/1999/xlink" x="0px" y="0px"
	 viewBox="0 0 80 16" enable-background="new 0 0 80 16" xml:space="preserve">
<g>
	<g>
		<path fill="#B2BAC2" d="M5.7,0.7h3.5l5.6,14.7h-4.6L9.7,14H5.3l-0.5,1.3H0.2L5.7,0.7z M8.5,10.8l-1-2.6l-1,2.6H8.5z"/>
		<path fill="#B2BAC2" d="M23.4,5.6c-0.3-0.2-0.6-0.4-1-0.5C22,5,21.6,4.9,21.2,4.9c-0.4,0-0.8,0.1-1.2,0.2
			c-0.4,0.2-0.7,0.4-0.9,0.6c-0.3,0.3-0.5,0.6-0.6,1c-0.1,0.4-0.2,0.8-0.2,1.2s0.1,0.9,0.2,1.2c0.2,0.4,0.4,0.7,0.7,1
			c0.3,0.3,0.6,0.5,1,0.6s0.8,0.2,1.2,0.2c0.5,0,1-0.1,1.4-0.3c0.4-0.2,0.8-0.5,1.1-0.9h-1.3V6.8h5.7v4.9c-0.3,0.6-0.7,1.1-1.2,1.6
			c-0.5,0.5-1,0.9-1.6,1.3c-0.6,0.4-1.2,0.6-1.9,0.8c-0.7,0.2-1.4,0.3-2.1,0.3c-1.1,0-2.1-0.2-3-0.6c-0.9-0.4-1.8-0.9-2.5-1.6
			c-0.7-0.7-1.2-1.5-1.7-2.4c-0.4-0.9-0.6-2-0.6-3c0-1.1,0.2-2.1,0.6-3c0.4-0.9,0.9-1.8,1.6-2.5c0.7-0.7,1.5-1.2,2.4-1.6
			c0.9-0.4,1.9-0.6,3-0.6c0.8,0,1.5,0.1,2.1,0.2c0.6,0.2,1.1,0.3,1.5,0.6c0.5,0.2,0.9,0.5,1.2,0.8L23.4,5.6z"/>
		<path fill="#B2BAC2" d="M29.4,0.7H38v3.8h-4v1.6H38v3.7h-3.9v1.7h4.1v3.9h-8.8V0.7z"/>
		<path fill="#B2BAC2" d="M39.5,0.7h3.9l4,5.7V0.7H52v14.7h-3.9l-4-5.6v5.6h-4.6V0.7z"/>
		<path fill="#B2BAC2" d="M53.2,8c0-1.2,0.2-2.2,0.6-3.2c0.4-0.9,1-1.8,1.7-2.4C56.2,1.7,57,1.2,58,0.8c0.9-0.4,1.9-0.5,3-0.5
			c0.8,0,1.6,0.1,2.2,0.2c0.7,0.2,1.2,0.3,1.7,0.6c0.5,0.2,1,0.5,1.4,0.8L64,5.9c-0.2-0.2-0.5-0.3-0.8-0.5c-0.2-0.1-0.5-0.2-0.9-0.3
			C62,5,61.6,4.9,61.1,4.9c-0.5,0-0.9,0.1-1.3,0.2c-0.4,0.2-0.7,0.4-1,0.7c-0.3,0.3-0.5,0.6-0.7,1C58,7.2,58,7.6,58,8
			c0,0.4,0.1,0.8,0.3,1.2c0.2,0.4,0.4,0.7,0.7,1c0.3,0.3,0.6,0.5,1,0.7c0.4,0.2,0.8,0.2,1.3,0.2s0.9-0.1,1.3-0.2
			c0.4-0.1,0.7-0.2,0.9-0.4c0.3-0.2,0.5-0.4,0.8-0.6l2.3,4.1c-0.4,0.3-0.9,0.6-1.4,0.9c-0.5,0.2-1,0.4-1.7,0.6
			c-0.7,0.2-1.4,0.3-2.3,0.3c-1.1,0-2.2-0.2-3.2-0.6c-1-0.4-1.8-0.9-2.5-1.6c-0.7-0.7-1.3-1.5-1.6-2.4C53.4,10.2,53.2,9.1,53.2,8z"
			/>
		<path fill="#B2BAC2" d="M70.6,9L66,0.7h5.2L73,3.8l1.7-3.1h5.2L75.3,9v6.3h-4.7V9z"/>
	</g>
</g>
</svg>
