<?xml version="1.0" encoding="utf-8"?>
<!-- Generator: Adobe Illustrator 16.2.1, SVG Export Plug-In . SVG Version: 6.00 Build 0)  -->
<!DOCTYPE svg PUBLIC "-//W3C//DTD SVG 1.1//EN" "http://www.w3.org/Graphics/SVG/1.1/DTD/svg11.dtd">
<svg version="1.1" id="Layer_1" xmlns="http://www.w3.org/2000/svg" xmlns:xlink="http://www.w3.org/1999/xlink" x="0px" y="0px"
	 width="1133.594px" height="252.148px" viewBox="0 0 1133.594 252.148" enable-background="new 0 0 1133.594 252.148"
	 xml:space="preserve">
<g>
	<path fill="#FFFFFF" d="M335.826,185.501c-21.973,0-31.896-15.062-31.896-34.909V80.598c0-6.91,5.139-12.404,11.872-12.404
		c6.557,0,11.873,5.494,11.873,12.404v12.05h22.149c5.848,0,10.987,4.431,10.987,10.632c0,5.848-5.14,10.278-10.987,10.278h-22.149
		v36.503c0,8.506,3.721,13.113,11.518,13.113c3.898,0,7.797-1.063,10.986-1.949c9.037-2.127,14.707,3.544,14.707,10.1
		c0,3.898-1.949,7.975-7.441,10.455C351.243,184.614,342.561,185.501,335.826,185.501z"/>
	<path fill="#FFFFFF" d="M438.957,101.686c0,4.783-3.722,11.163-11.164,11.163c-4.076,0-7.975-1.772-13.29-1.595
		c-5.848,0.177-9.215,3.366-9.215,11.518v50.147c0,6.734-5.139,12.05-11.872,12.05c-6.557,0-11.873-5.315-11.873-12.05v-54.577
		c0-18.429,10.81-30.301,31.188-30.301c5.848,0,11.695,0.531,15.239,1.417C435.235,91.407,438.957,95.838,438.957,101.686z"/>
	<path fill="#FFFFFF" d="M531.104,133.05c0,6.91-3.544,11.872-12.227,11.872h-47.136v1.771c0,11.164,8.506,17.188,20.379,17.188
		c6.379,0,12.936-1.595,18.96-3.898c9.392-3.544,15.593,2.836,15.593,9.392c0,3.367-1.24,7.089-6.023,9.924
		c-6.557,3.898-17.898,6.202-29.238,6.202c-24.454,0-40.934-15.417-42.706-37.566c-0.531-6.911-0.354-16.657,0-22.15
		c2.127-23.036,18.606-37.743,41.819-37.743c24.1,0,40.579,16.125,40.579,41.11V133.05z M506.296,128.797
		c1.24,0,1.949-0.709,1.949-2.127c0.531-10.809-6.203-18.074-17.721-18.074c-12.581,0-18.783,7.974-18.783,20.201H506.296z"/>
	<path fill="#FFFFFF" d="M631.224,133.05c0,6.91-3.545,11.872-12.227,11.872H571.86v1.771c0,11.164,8.506,17.188,20.379,17.188
		c6.379,0,12.936-1.595,18.961-3.898c9.391-3.544,15.593,2.836,15.593,9.392c0,3.367-1.24,7.089-6.024,9.924
		c-6.557,3.898-17.897,6.202-29.238,6.202c-24.453,0-40.934-15.417-42.705-37.566c-0.531-6.911-0.354-16.657,0-22.15
		c2.127-23.036,18.605-37.743,41.819-37.743c24.099,0,40.579,16.125,40.579,41.11V133.05z M606.415,128.797
		c1.24,0,1.949-0.709,1.949-2.127c0.531-10.809-6.202-18.074-17.72-18.074c-12.581,0-18.784,7.974-18.784,20.201H606.415z"/>
	<path fill="#FFFFFF" d="M675.347,94.951c3.898-3.544,12.936-6.91,22.328-6.91c22.504,0,35.794,13.467,35.794,38.807v45.54
		c0,7.088-4.962,12.581-12.05,12.581c-6.557,0-11.695-5.493-11.695-12.581v-44.3c0-10.81-6.201-16.834-15.947-16.834
		c-7.443,0-14.708,3.366-18.43,7.442v54.046c0,6.733-4.961,12.227-11.695,12.227c-6.557,0-12.049-5.493-12.049-12.227V69.08
		c0-6.911,5.139-12.227,11.872-12.227c6.556,0,11.872,5.315,11.872,12.227V94.951z"/>
	<path fill="#FFFFFF" d="M796.731,185.501c-23.213,0-40.756-14.885-42.527-35.972c-0.531-7.088-0.531-18.252,0-25.34
		c1.771-21.264,19.314-36.148,42.527-36.148c23.391,0,40.58,14.885,42.352,36.148c0.531,7.088,0.531,18.074,0,25.162
		C837.312,170.616,820.122,185.501,796.731,185.501z M815.515,127.91c-0.531-10.1-7.619-17.188-18.783-17.188
		c-11.163,0-18.074,7.088-18.96,17.188c-0.354,4.785-0.354,13.113,0,17.721c0.886,10.101,7.797,17.188,18.96,17.188
		c11.164,0,18.075-7.088,18.783-17.188C815.87,141.023,815.87,132.695,815.515,127.91z"/>
	<path fill="#FFFFFF" d="M859.815,101.153c0-7.088,4.254-12.581,11.695-12.581c6.734,0,12.05,5.493,12.05,12.581v45.186
		c0,10.633,6.911,16.48,17.011,16.48c7.797,0,13.645-2.304,17.366-4.607v-57.413c0-6.733,4.962-12.227,11.872-12.227
		c6.557,0,11.873,5.493,11.873,12.227v66.272c0,4.076-1.063,6.38-4.253,8.329c-5.493,3.898-18.429,10.101-37.39,10.101
		c-25.517,0-40.225-13.822-40.225-38.808V101.153z"/>
	<path fill="#FFFFFF" d="M1035.245,154.668c0,19.847-16.479,30.833-37.034,30.833c-16.657,0-27.288-4.785-33.845-10.278
		c-4.254-3.544-5.494-10.277-2.127-14.707c3.544-4.784,9.568-5.848,15.416-2.127c5.494,3.544,12.759,5.848,21.088,5.848
		c9.214,0,13.467-3.366,13.467-8.151c0-3.898-2.836-6.556-10.277-8.328c-6.379-1.418-6.203-1.24-13.113-3.013
		c-14.53-3.721-25.871-11.872-25.871-27.111c0-19.138,15.416-29.592,36.148-29.592c11.164,0,22.682,2.834,28.884,7.974
		c5.14,4.253,4.784,11.518,1.063,15.771c-3.544,3.898-9.568,4.43-15.416,1.418c-4.607-2.304-10.81-3.898-15.417-3.898
		c-8.86,0-12.581,3.366-12.581,7.619c0,3.722,2.658,6.202,10.632,7.975l12.581,2.835
		C1026.563,131.986,1035.245,140.669,1035.245,154.668z"/>
	<path fill="#FFFFFF" d="M1133.594,133.05c0,6.91-3.544,11.872-12.227,11.872h-47.136v1.771c0,11.164,8.506,17.188,20.379,17.188
		c6.379,0,12.936-1.595,18.96-3.898c9.392-3.544,15.593,2.836,15.593,9.392c0,3.367-1.24,7.089-6.023,9.924
		c-6.557,3.898-17.898,6.202-29.238,6.202c-24.454,0-40.934-15.417-42.705-37.566c-0.532-6.911-0.355-16.657,0-22.15
		c2.126-23.036,18.605-37.743,41.818-37.743c24.1,0,40.579,16.125,40.579,41.11V133.05z M1108.786,128.797
		c1.24,0,1.949-0.709,1.949-2.127c0.531-10.809-6.203-18.074-17.721-18.074c-12.581,0-18.783,7.974-18.783,20.201H1108.786z"/>
</g>
<path fill="#FFFFFF" d="M204.803,46.012c-8.356-4.725-21.699,2.873-29.803,16.969l-14.672,25.523
	c-5.361,10.611-4.626,23.244,2.173,32.998l0.429,0.615c6.799,9.752,15.915,18.768,18.932,21.983c1.772,1.89,3.129,4.224,3.876,6.894
	c2.479,8.86-2.695,18.053-11.556,20.532c-8.861,2.479-18.054-2.694-20.533-11.556c-0.622-2.225-0.761-4.469-0.48-6.623
	c0.476-3.661-0.699-9.624-5.947-15.479c-5.25-5.854-15.979,5.203-19.448,16.573l-0.16,0.523c-3.47,11.37-5.658,21.293-5.005,22.247
	c0.391,0.568,0.754,1.166,1.085,1.791c4.868,9.158,1.39,20.528-7.769,25.396c-9.158,4.869-20.529,1.391-25.398-7.768
	c-4.867-9.159-1.389-20.528,7.77-25.397c0.411-0.218,0.826-0.42,1.246-0.604c0.7-0.309,2.684-5.089,4.406-10.734
	c1.723-5.647,3.119-10.224,3.119-10.224c0.184-0.601,0.344-1.195,0.489-1.784l9.268-33.092l-9.913,20.346
	c-1.176-3.863-3.117-4-7.37-0.957c-2.566,1.836-6.809,5.45-8.882,6.933c-3.891,2.785-7.146,8.192-8.869,11.506
	c-1.014,1.95-2.434,3.729-4.25,5.2c-7.096,5.759-17.516,4.674-23.274-2.423s-4.673-17.517,2.423-23.274
	c2.08-1.689,4.447-2.789,6.897-3.322c4.169-0.905,18.349-9.567,26.892-15.68c1.529-1.094,2.812-2.129,3.856-3.088l22.81-17.324
	l-19.865,10.734c0,0-2.021-0.205-4.498,0.07c-7.271,0.807-14.76,1.832-16.174,3.633c-0.837,1.062-1.834,2.028-2.986,2.857
	c-6.631,4.776-15.878,3.273-20.654-3.357c-4.776-6.632-3.272-15.88,3.358-20.654c2.735-1.971,5.915-2.871,9.041-2.784
	c5.317,0.147,19.309,2.984,31.015,0.909l3.007-0.531c11.706-2.075,25.722-12.266,31.306-22.762c0,0,5.468-9.604,12.213-21.453
	c6.745-11.848,6.246-24.826-1.111-28.986l-13.325-7.533c-6.723-3.802-17.729-3.809-24.457-0.016L12.232,54.58
	C5.504,58.374,0,67.797,0,75.52v101.109c0,7.723,5.504,17.146,12.232,20.939l91.778,51.738c6.728,3.795,17.734,3.787,24.457-0.013
	l91.464-51.712c6.723-3.801,12.225-13.23,12.225-20.953V75.52c0-7.723-5.502-17.153-12.225-20.953
	C219.932,54.566,213.157,50.736,204.803,46.012z"/>
</svg>
