<?xml version="1.0" encoding="utf-8"?>
<!-- Generator: Adobe Illustrator 18.1.1, SVG Export Plug-In . SVG Version: 6.00 Build 0)  -->
<!DOCTYPE svg PUBLIC "-//W3C//DTD SVG 1.1//EN" "http://www.w3.org/Graphics/SVG/1.1/DTD/svg11.dtd">
<svg version="1.1" id="Layer_1" xmlns="http://www.w3.org/2000/svg" xmlns:xlink="http://www.w3.org/1999/xlink" x="0px" y="0px"
	 viewBox="0 0 400 400" enable-background="new 0 0 400 400" xml:space="preserve">
<g>
	<path fill="#FFFFFF" d="M60.9,233.1c0-21.8,17.7-19.5,39.5-19.5s39.5-2.3,39.5,19.5s-17.7,39.5-39.5,39.5S60.9,255,60.9,233.1z"/>
	<path fill="#FFFFFF" d="M260.9,233.1c0-21.8,17.7-19.5,39.5-19.5c21.8,0,39.5-2.3,39.5,19.5s-17.7,39.5-39.5,39.5
		C278.6,272.7,260.9,255,260.9,233.1z"/>
	<path opacity="0.1" fill="#333F47" d="M66.7,229.5c-4.8,0-8.5-4.4-7.5-9.1c4.1-19.3,21-33.1,41.2-33.1s37.2,13.7,41.2,33.1
		c1,4.7-2.7,9.1-7.5,9.1H66.7z"/>
	<path opacity="0.1" fill="#333F47" d="M161.3,258.7c-5.5,0-9.7-5-8.5-10.4c4.7-22.1,24-37.9,47.2-37.9s42.5,15.7,47.2,37.9
		c1.1,5.4-3.1,10.4-8.5,10.4H161.3z"/>
	<path opacity="0.1" fill="#333F47" d="M266.7,229.5c-4.8,0-8.5-4.4-7.5-9.1c4.1-19.3,21-33.1,41.2-33.1s37.2,13.7,41.2,33.1
		c1,4.7-2.7,9.1-7.5,9.1H266.7z"/>
	<circle fill="#333F47" cx="100.5" cy="233.1" r="14.5"/>
	<path fill="#333F47" d="M186,197.1c0-8,6.5-14.5,14.5-14.5c8,0,14.5,6.5,14.5,14.5c0,8-6.5,24.5-14.5,24.5
		C192.5,221.6,186,205.1,186,197.1z"/>
	<circle fill="#333F47" cx="300.5" cy="233.1" r="14.5"/>
</g>
<g>
	<g>
		<path fill="#333F47" d="M224.6,263.4c-3.1-3.8-6.4-7-9.9-9.4h-25.4c-3.5,2.4-6.8,5.6-9.9,9.4c-3.7,4.6-11,3.6-13.2-1.8
			c-1-2.4-1.9-4.7-2.7-7c-3.3,1.3-5.5,5-4.7,8.7c1.7,8.2,5.8,19.2,11.5,28.9C177.9,279,188.4,268,200,268s22.1,11.1,29.8,24.3
			c5.7-9.7,9.7-20.7,11.5-29c0.5-2.3-0.2-4.6-1.5-6.4c-0.6,1.5-1.2,3.1-1.8,4.7C235.6,267,228.3,268,224.6,263.4z"/>
		<path fill="#FFFFFF" d="M233.8,254h-19.1c3.5,2.4,6.8,5.6,9.9,9.4c3.7,4.6,11,3.6,13.3-1.8c0.7-1.6,1.3-3.1,1.8-4.7
			C238.3,255.2,236.2,254,233.8,254z"/>
		<path fill="#FFFFFF" d="M179.4,263.4c3-3.8,6.4-7,9.9-9.4h-23c-1,0-1.9,0.2-2.8,0.5c0.8,2.3,1.7,4.6,2.7,7
			C168.4,267,175.7,267.9,179.4,263.4z"/>
	</g>
	<path fill="#ED5A5A" d="M200,316.5c11.6,0,22.1-11.1,29.8-24.3c-7.6-13.1-18.1-24.3-29.8-24.3s-22.1,11.1-29.8,24.3
		C177.9,305.4,188.4,316.5,200,316.5z"/>
</g>
</svg>
