<?xml version="1.0" encoding="utf-8"?>
<!-- Generator: Adobe Illustrator 20.0.0, SVG Export Plug-In . SVG Version: 6.00 Build 0)  -->
<svg version="1.1" id="Layer_1" xmlns="http://www.w3.org/2000/svg" xmlns:xlink="http://www.w3.org/1999/xlink" x="0px" y="0px"
	 viewBox="0 0 360 360" style="enable-background:new 0 0 360 360;" xml:space="preserve">
<style type="text/css">
	.st0{fill:#8361B4;}
	.st1{fill:#FDE135;stroke:#FFFFFF;stroke-width:8;stroke-miterlimit:10;}
	.st2{fill:#CAA61F;stroke:#FFFFFF;stroke-width:8;stroke-miterlimit:10;}
	.st3{fill:none;stroke:#CAA61F;stroke-width:8;stroke-linecap:round;stroke-miterlimit:10;}
	.st4{fill:#FDE135;stroke:#FFFFFF;stroke-width:4;stroke-linecap:round;stroke-linejoin:round;stroke-miterlimit:10;}
	.st5{fill:#CAA61F;stroke:#FFFFFF;stroke-width:4;stroke-linecap:round;stroke-linejoin:round;stroke-miterlimit:10;}
</style>
<rect class="st0" width="360" height="360"/>
<circle class="st1" cx="180" cy="180" r="157"/>
<circle class="st2" cx="180" cy="180" r="108.3"/>
<g>
	<path class="st3" d="M89.4,276.7c-26-24.2-42.2-58.8-42.2-97.1c0-22.6,5.6-43.8,15.5-62.4"/>
	<path class="st3" d="M297.4,117.3c9.9,18.6,15.4,39.7,15.4,62.2c0,38.3-16.2,72.8-42.1,97"/>
</g>
<polygon class="st4" points="180,107.8 196.9,159.9 251.7,159.9 207.4,192.1 224.3,244.2 180,212 135.7,244.2 152.6,192.1 
	108.3,159.9 163.1,159.9 "/>
<circle class="st5" cx="180" cy="107.8" r="4.4"/>
<circle class="st5" cx="223.7" cy="244.2" r="4.4"/>
<circle class="st5" cx="135.5" cy="244.2" r="4.4"/>
<circle class="st5" cx="108.3" cy="160.4" r="4.4"/>
<circle class="st5" cx="251.7" cy="160.4" r="4.4"/>
<circle class="st5" cx="197.4" cy="159.4" r="4.4"/>
<circle class="st5" cx="163" cy="159.4" r="4.4"/>
<circle class="st5" cx="152" cy="192.5" r="4.4"/>
<circle class="st5" cx="208" cy="192.5" r="4.4"/>
<circle class="st5" cx="180" cy="213.2" r="4.4"/>
</svg>
